<?xml version="1.0" encoding="UTF-8"?>
<svg id="Layer_1" xmlns="http://www.w3.org/2000/svg" version="1.1" viewBox="0 0 595.28 841.89">
  <!-- Generator: Adobe Illustrator 29.5.1, SVG Export Plug-In . SVG Version: 2.1.0 Build 141)  -->
  <path d="M73.36,159.1l1.63.81,171.19,154.41.4,47.97,54.03,43.27,53.51-42.71.25-46.22,1.08-2.7,167.53-151.32,4.87-3.51v71.61l-35.57,30.91-.21,40.32-25.18,25.62-.39,45.54-89.73,79.96c-.66.51-.71,1.13-.81,1.89-.56,4.23,1.07,16.78-.48,19.51l-59.4,50.59,15.6,63.4-31.08,31.61-31.09-31.63,15.4-62.96-59.19-51.02c-1.55-2.7.07-15.31-.48-19.51-.1-.76-.16-1.38-.8-1.9l-90.05-79.78-.62-41.4-25.18-25.62-.22-44.63-35.02-30.37v-72.15Z"/>
  <path d="M265.75,301.24l34.86,28.63c10.5-8.57,20.68-18.17,31.36-26.46.55-.43,3.5-3.07,3.5-1.36v60.53l-34.85,28.8-34.86-28.8v-61.34Z"/>
</svg>