<?xml version="1.0" encoding="UTF-8"?><svg id="Layer_2" xmlns="http://www.w3.org/2000/svg" viewBox="0 0 649 186"><g id="Layer_1-2"><g id="QjhwYG.tif"><path d="M552.15,186c-5.42-14.12.81-28.09,1.99-41.52,2.03-23.19,2.04-46.65,4.8-69.78-21.68-9.66-48.33-14.62-63.26-34.77.61-1.99,1.76-2.6,3.33-3.66,8.12-5.48,114-35.39,124.51-35.32,18.16.11,22.43,12.82,23.53,28.51,2.59,36.87-12.56,36.12-43.73,41.79-9.18,40.84-17.14,85.28-49.17,114.75h-2ZM621.78,17.13c-6.89.74-4.72,10.57.73,10.83,7.57.35,5.69-11.52-.73-10.83Z"/><path d="M0,131c25.98-28.63,21.53,15.23,41.89,21.58,4.54,1.65,9.42-15.94,9.96-19.16,2.48-14.9-.14-35.08,4.04-49.91l-4.39-28.5-15.4-23.69c-1.03-8.27,13,.27,15.39.61,11.62,1.68,20.59-2.09,28.82,11.14,18.07,29.06,16.66,127.24-23.38,139.45-11.43,3.48-13.19-.97-22.14-3.92-3.73-1.23-5.5,1.17-9.37-.52-3.62-1.58-13.49-13.23-15.6-17.4L0,133v-2Z"/><path d="M369.06,23.37c20.94,21.64,19.01,72.17,24.42,99.98,2.93,15.07,17.2,26.73,4.88,41.12-7.91,9.24-20.01,6.99-28.28-.62-10.24-9.43-6.3-47.72-11.57-50.34l-25.54,4.46c-6.57,6.41-4.67,25.37-13.17,28.81-15.28,6.16-22.18-6.58-21.11-20.15,1.33-16.89,23.51-80.28,34-93.95,6.84-8.92,15.48-8.78,20.27-18.35,6.22,1.2,11.74,4.52,16.12,9.04ZM352.44,65.01c-9.33,1.52-10.01,14.4-12.94,21.61l2.7,4.18,14.8-2.8-4.56-22.99Z"/><path d="M485.24,122c-2.39-24.03,3.91-50.07-7.06-72.53l5.09-7.03c3.5-.94,11.96,15.77,14.55,19.47,2.41,3.45,8.52,6.95,9.84,9.15,9.19,15.3,11.38,80.41-.57,95.31-4.4,5.49-15.04,5.62-18.46,10.44-18.62,1.98-31.79-61.91-37.82-61.78-7.88,17.47-1.62,45.92-24.07,54.98-22.57-7.91-13.46-11.53-10.62-26.74,5.93-31.79,13.43-65.57,8.15-97.77.61-5.44,6.2-6.41,10.81-4.72s25.84,35.08,29.38,41.57c4.71,8.63,11.69,31.87,16.92,38.06,1.33,1.57,1.56,1.96,3.87,1.62Z"/><path d="M261.93,71.33c-1.52,1.92-3.59,6.76-2.62,9.39,22.73,20.18,42.73,49.75,16.79,77.31-26.75,28.43-69.14,13.27-66.26-25.36,10.03-14.7,23.12,23,42.8,4.87,13.13-12.1-11.29-27.01-17.97-36.06-16.63-22.5-19.24-68.83,14.15-76.86,11.23-2.7,42.09-1.17,43.38,13.72,1.04,11.96-5.87,8.35-9.56,12.23-3.6,3.79-6.89,10.69-10.01,13.97-1.97,2.07-8.49,4.02-10.69,6.79Z"/><path d="M125.52,48.3c7.14,6.18,20.74,29.52,22.78,38.67,3.24,14.56-6.73,49.64,14.02,52.13,19.81-24.09-.34-52.97,12.38-77.64,3.11-1.85,22.92,21.01,23.76,25.28,2.57,12.95-10.64,63.81-17.35,76.15-5.5,10.14-28.68,16.73-38.69,11.97-25.43-12.09-20.91-72.33-26.26-96.7-3.07-14.01-12.15-24.95-15.4-38.67l1.57-3.43c8.29.86,11.7,7.03,16.52,10.41,1.52,1.06,4.8.21,6.68,1.83Z"/></g></g></svg>