<?xml version="1.0" encoding="UTF-8"?><svg id="Layer_2" xmlns="http://www.w3.org/2000/svg" viewBox="0 0 479 155.01"><defs><style>.cls-1{fill:#020202;}</style></defs><g id="Layer_1-2"><path class="cls-1" d="M73.85,0c13.23.36,32.93,5.4,43.38,13.94,5.8,4.74,22.79,30.21,18.31,36.02-1.93,2.5-37.73,3.39-43.1,2.58-10.41-1.56-7.14-5.31-11.64-8.29-10.49-6.94-38.15-.23-11.56,8.54,24.32,8.02,70.97,6.93,71.45,45.08.55,43.84-43.49,56.95-79.8,55.13l2.98-1.96c-19.43-.71-48.63-9.97-57.6-28.6-1.96-4.08-6.73-18.89-3.53-22.14,4.15-4.21,47.21-5.51,51.46-2,2.15,1.78,1.63,7.15,8.2,9.98,10.46,4.51,36.3-.24,19-7.99-24.88-11.15-71.29-2.56-75.29-43.28C2.22,17.46,38.14-.36,72.85,0c.33,0,.67,0,1,0Z"/><path class="cls-1" d="M266.44,144.57c-1.14,2.83-21.07,3.33-25.4,3.53-5.56.25-28.24,1.62-30.04-2.98l3.59-139.64,171.59-1c1.81.96,1.66,2.28,2.03,3.94,4.97,21.73-3.74,65.46,1.19,88.23,2.81,12.97,26.3,11.03,30.66.21l.96-90.45c2.81-4.69,53.97-4.39,55.79-2.25,2.95,3.46,1.03,82.1.21,90.79-7.94,84.66-145.74,65.91-145.74,1.94v-48.19c-8.69,2.65-63.78-1.2-65.72,2.62-.76,1.5.17,5.36-.14,7.31h50.39c2.73,0,4.31,41.73,0,41.73h-49.4c-2.01,9.03,2.66,37.58,0,44.21Z"/><polygon class="cls-1" points="146.41 5.18 200.37 7.67 201.61 139.64 198.21 147.18 143.91 146.35 143.91 7.67 146.41 5.18"/></g></svg>