<?xml version="1.0" encoding="UTF-8"?><svg id="Layer_2" xmlns="http://www.w3.org/2000/svg" viewBox="0 0 804 663"><g id="Layer_1-2"><path d="M338,401.39l-15.3,115.02-2.69,5.79c-.6-2.12,1.72-7.79-2-6.99-1.91,14.72-3.76,29.49-6.32,44.12-3.93,22.43-8.61,46.85-13.97,68.93-.24,1-.3,3.01-1.7,2.77,1.73-23.31-5.35-45.72-6.02-68.89-1.75-.23-.93,2.26-.99,3.48-.62,13.85,3.88,28.5,3.99,42.45l-7.98-44.44c-1.5-30.87-2.48-61.94-4.05-92.81,2.07-22.68-2.62-49.83.02-71.95.74-6.2,12.39-12.2,16.46-17.49,14.32-18.6,13.97-47.35-6.13-61.69-1.59-1.13-8.24-4.38-8.35-4.85-.4-1.67-.26-10.02.98-10.88,4.52-3.14,18.98,4.55,19.16-5.91.05-3.29-5.4-16.14-7.23-19.62-2.28-4.33-11.58-13.09-12.42-15.79-1.55-5,.74-11.41-1.36-16.6.14-2.85,16.19-13.42,19.44-16.38,7.6-6.9,13.55-15.47,20.47-22.98l-69.62,37.8-9.36,1.65,17.94-95.66,3.06-3.71c6.53,4.67,3.01,7.76,11.96,4.47,31.5-11.59,66.24-34.95,97.66-49.26,5.4-2.46,11.22-4.05,16.35-7.13.99,1.2-9.89,19.09-11.99,21.47l8.99-.5c-1.75,4.77-5.4,7.1-4,12.98,7.28,1.65,12.44-4.15,19.39-3.95.82.02,3.82.54,3.61,1.94-3.11.99-7.24,4.63-7.99,8,1.38,1.28,14.91-8.35,17.98-3.49-7.81,9.2-11.35,21.44-19.49,30.45l-60.95,37-9.54,32.9c31.01-13.1,59.58-31.47,89.32-47.1,8.55-4.49,15.21-10.39,24.17-2.82l14.36,30.2c-10.59,13.82-19.68,28.9-30.88,42.17-12.03,2.55-29.04-1.65-40.46.54-2.28.44-3.83,2.52-4.31,4.69-3.15,14.3,1.88,38.38-.17,53.75-1.01,25.44-2.27,51.39-1.94,76.73.13,10.23,2.09,9.84,11.37,10.65,2.26.2,8.1-1.52,8.51.5l-18.99,59.35-1.98-7.49c.87-26.35-3.54-51.5-3.06-77.92.47-25.84,3.18-51.87,4.09-77.79.43-12.16-.95-24.43.95-36.48-2.66-.9-6.76,3.33-8.47,2.99-3.16-.62,1.79-8.01-7-9.01-14.85-1.69-32.7,1.29-47.81.21-1.4.22-2.86,1.26-3.64,2.44-.41.63-1.94,13.52-1.97,14.95-.67,33.44.65,68.33.85,101.69.02,3.84-1.13,27.5,3.54,27.5h25.5Z"/><path d="M224.77,251.38c-.99.98-12.94,2.57-15.97,3.53-10.36,3.29-22.33,9.54-29.1,18.93-11.98,16.62-11.46,45.91,4.93,59.48,2.09,1.73,8.24,3.67,8.18,6.47-.02.8-2.21,6.86-2.77,7.23-2.85,1.9-19.82-1.49-22.37,4.69-2.23,5.39,1.81,16.24,3.84,21.72,2.41,6.5,6.06,6.38,2.68,14.7-3.18,7.82-9.37,12.58-14.17,18.79-6.41,8.28-13.53,19.68-22.01,25.96-1.4,1.04-2.9,1.33-1.01-1.01,5.48-6.76,11.49-13.59,15.79-21.18.5-.88,2.19-2.52.71-3.29-9.95,13.84-20.84,27-32.48,39.46-26.57,28.45-56.69,54.3-85.04,80.84-1.63,1.53-19.06,20.54-19.98,19.48l23.98-43.44c-1.57-1.99-1.59-.22-2.23.8-2.06,3.26-4.14,7.63-5.76,11.18-1.39,1.6-1.07-.98-.8-1.77,3.31-9.71,14.24-21.42,17.07-30.98,4.93-16.68,16.99-34.03,25.9-49.94,20.64-36.84,39.91-74.01,59.35-111.48,11.28-21.75,22.21-43.67,33.47-65.43-1-1.62-2.21.33-3,1-8.72,7.32-16.63,16.29-24.05,24.91-33.03,12.33-65.67,25.89-98.67,38.27-1.97.74-5.27,2.38-7.26,1.73,35.97-40.13,67.15-84.03,97.02-128.79,12.51-18.76,24.17-38.34,37.48-56.43l16.99,49.91c2.43-2.43,1.79-17.48,3.54-18.94,2.94-2.47,9.52,5.67,11.46,6.97,1.01.68.81,1.62,1.98-.03l25.54-51.89c1.79.23,1.12,5.27.98,6.47-.68,5.64-2.93,12.11-3.03,17.95-.03,2.05-.57,2.93,2.03,2.52.42-2,11.66-29.77,13-27.96l-3.97,21.49,1.97.48c2.71-6.27,5.69-18.92,9.03-24.19.6-.96,1.94-1.34,2.97-1.77-1.09,14.38-3.84,28.75-6.47,42.96-5.6,30.33-12.39,60.73-19.76,90.6Z"/><path d="M630.35,386.05c19.9,16.2,38.68,38.89,57.63,56.79,21.14,19.97,43.68,39.27,66,57.91,3.31,2.77,12.04,7.72,14.07,10,1.21,1.36-.33,2.65.06,3.27,1.77,2.82,19.62,9.76,22.88,13.16-17.08-2.75-32.63,3.31-48.99,7.01-.23,1.78,2.25.97,3.37.87,3.23-.3,5.48-.99,9.14-.88,1.2.04,3.72-.74,3.49.99l-41.78,8.71c-4.17,2.41-15.11,3.58-16.99,8.04-.93,2.19,1.01,5.08-3.77,2.28-16.86-20.79-37.07-39.33-53.42-60.48-7.56-9.78-13.39-20.48-20.44-30.52-13.97-19.89-29.97-38.6-45.57-57.32.7-.98,1.3-1.3,2.48-1.5,18.37-3.11,28.23-4.33,43.73-16.02,1.12-.85,4-4.94,4.32-5,2.97-.51,2.62,1.72,3.8,2.68Z"/><path d="M746.99,270.59l-103.67-51.75-45.32-29.15c-.79-3.31,2.03-.77,5.44-.94,4.54-.23,9.44-.7,14.07-1.03,1.49-.11,2.89.77,2.48-1.48l-66.99-81.38,69.98,24.47c30.96,22.35,58.08,50.7,87.03,75.85l36.98,65.41Z"/><path d="M520.58,386.84c3.63,2.75,6.17,5.72,10.41,8.08,6.9,3.84,13.93,4.95,21.02,7.99l-25.05,46.86c-36.81,17.99-75,33.32-113.4,47.53-7.15,2.65-14.76,4.35-21.6,6.38-6.38,1.9-12.39,5.16-18.96,6.53,3.99-4.91,10.39-7.36,15.01-11.46,2.45-2.18,3.98-5.38,5.95-7.04,8.13-6.86,17.14-12.82,25.04-19.93.16-.74-1.05-.68-1.48-.49-3.12,1.41-8.48,8.59-12.51,7.49,24.38-23.05,51.91-42.67,77.01-64.89,4.54-4.02,30.9-30.52,33.49-30.51,1.96.57,3.48,2.24,5.08,3.46Z"/><path d="M540,181.72c8.72-.42,17.34.74,25.99,1.5l-43.98,39.96c-11.42,6.83-23.6,23.34-34.49,29.46-1.98,1.11-11.42,2.17-12.53,1.51-1.41-.84-.94-1.33-.51-2.51.83-2.25,4.11-5.93,5.39-8.61,7.32-15.39,9.13-30.88,14.91-45.02,1.17-2.86,34.77-45.57,38.18-48.74,1.57-1.46,3.65-1.56,5.1-2.9,2.1-1.94,2.97-5.36,5.92-6.56-.96,4.36-4.75,11.42-4.75,15.68,0,1.8,3.64,5.77,4.29,8.26,1.89,7.3-1.18,11.55-3.52,18Z"/><path d="M599.99,229.66c.85.79.23,22.08-.43,23.03-1.68,2.42-11.37-2.04-13.35,6.64-.93,4.09.76,7.74.83,11.73.09,5.08.8,19.54-.8,23.26-.51,1.18-10.14,12.85-10.95,13.09-1.33.39-17.48-2.71-18.34-3.31-1.09-.76-.87-1.89-1.01-2.99-.5-4.01-.34-38.67.54-40.49,13.32-9.14,25.75-19.85,39.21-28.74,1.39-.92,2.46-2.45,4.29-2.2Z"/><path d="M581.44,352.93c-6.33,4.32-18.92,4.67-23.71-2.67l-1.73-39.72c1.75-.35,2.47.9,3.51,1.98,8.96,9.27,16.9,21.52,25.94,31.01,1.85,5.03-.21,6.81-4.01,9.4Z"/></g></svg>